REM DIRINDEX 1\2\4\8,1\2\4\9,1\2\4\10,1\2\5\11,1\2\5\12,1\2\5\13,1\2\5\14,1\2\5\15,1\3\6\16,1\3\6\17,1\3\6\18,1\3\7\19,1\3\7\20,1\3\7\21,1\3\7\22,1\3\7\23
REM DIRNAME "folder01","folder02","folder03","folder04","folder05","folder06","folder07","folder08","folder09","folder10","folder11","folder12","folder13","folder14","folder15","folder16","folder17","folder18","folder19","folder20","folder21","folder22","folder23"
TITLE ""
FILE "LR_black_phrase_A07.mp3" MP3
  TRACK 01 AUDIO
    TITLE "0:"
    INDEX 01 00:00:00
  TRACK 02 AUDIO
    TITLE "19:cjc171_11901"
    INDEX 01 00:00:14
  TRACK 03 AUDIO
    TITLE "0:"
    INDEX 01 00:01:45
  TRACK 04 AUDIO
    TITLE "20:cjc171_11902"
    INDEX 01 00:02:09
  TRACK 05 AUDIO
    TITLE "0:"
    INDEX 01 00:04:41
  TRACK 06 AUDIO
    TITLE "21:cjc171_11903"
    INDEX 01 00:05:39
  TRACK 07 AUDIO
    TITLE "0:"
    INDEX 01 00:07:55
  TRACK 08 AUDIO
    TITLE "22:cjc171_11904"
    INDEX 01 00:08:20
  TRACK 09 AUDIO
    TITLE "0:"
    INDEX 01 00:10:42
  TRACK 10 AUDIO
    TITLE "23:cjc171_11905"
    INDEX 01 00:10:71
  TRACK 11 AUDIO
    TITLE "0:"
    INDEX 01 00:13:19
  TRACK 12 AUDIO
    TITLE "19:cjc171_11906"
    INDEX 01 00:14:24
  TRACK 13 AUDIO
    TITLE "0:"
    INDEX 01 00:15:51
  TRACK 14 AUDIO
    TITLE "20:cjc171_11907"
    INDEX 01 00:16:15
  TRACK 15 AUDIO
    TITLE "0:"
    INDEX 01 00:20:01
  TRACK 16 AUDIO
    TITLE "21:cjc171_11908"
    INDEX 01 00:21:01
  TRACK 17 AUDIO
    TITLE "0:"
    INDEX 01 00:23:62
  TRACK 18 AUDIO
    TITLE "22:cjc171_11909"
    INDEX 01 00:24:30
  TRACK 19 AUDIO
    TITLE "0:"
    INDEX 01 00:26:72
  TRACK 20 AUDIO
    TITLE "23:cjc171_11910"
    INDEX 01 00:27:27
  TRACK 21 AUDIO
    TITLE "0:"
    INDEX 01 00:29:71
  TRACK 22 AUDIO
    TITLE "19:cjc171_11911"
    INDEX 01 00:31:01
  TRACK 23 AUDIO
    TITLE "0:"
    INDEX 01 00:32:42
  TRACK 24 AUDIO
    TITLE "20:cjc171_11912"
    INDEX 01 00:33:08
  TRACK 25 AUDIO
    TITLE "0:"
    INDEX 01 00:35:50
  TRACK 26 AUDIO
    TITLE "21:cjc171_11913"
    INDEX 01 00:36:49
  TRACK 27 AUDIO
    TITLE "0:"
    INDEX 01 00:38:25
  TRACK 28 AUDIO
    TITLE "22:cjc171_11914"
    INDEX 01 00:38:64
  TRACK 29 AUDIO
    TITLE "0:"
    INDEX 01 00:41:05
  TRACK 30 AUDIO
    TITLE "23:cjc171_11915"
    INDEX 01 00:41:35
  TRACK 31 AUDIO
    TITLE "0:"
    INDEX 01 00:43:51
  TRACK 32 AUDIO
    TITLE "19:cjc171_11916"
    INDEX 01 00:44:49
  TRACK 33 AUDIO
    TITLE "0:"
    INDEX 01 00:45:70
  TRACK 34 AUDIO
    TITLE "20:cjc171_11917"
    INDEX 01 00:46:30
  TRACK 35 AUDIO
    TITLE "0:"
    INDEX 01 00:49:62
  TRACK 36 AUDIO
    TITLE "21:cjc171_11918"
    INDEX 01 00:50:59
  TRACK 37 AUDIO
    TITLE "0:"
    INDEX 01 00:53:28
  TRACK 38 AUDIO
    TITLE "22:cjc171_11919"
    INDEX 01 00:53:61
  TRACK 39 AUDIO
    TITLE "0:"
    INDEX 01 00:56:38
  TRACK 40 AUDIO
    TITLE "23:cjc171_11920"
    INDEX 01 00:56:60
  TRACK 41 AUDIO
    TITLE "0:"
    INDEX 01 00:59:37
  TRACK 42 AUDIO
    TITLE "19:cjc171_11921"
    INDEX 01 01:00:32
  TRACK 43 AUDIO
    TITLE "0:"
    INDEX 01 01:01:47
  TRACK 44 AUDIO
    TITLE "20:cjc171_11922"
    INDEX 01 01:02:04
  TRACK 45 AUDIO
    TITLE "0:"
    INDEX 01 01:04:75
  TRACK 46 AUDIO
    TITLE "21:cjc171_11923"
    INDEX 01 01:05:74
  TRACK 47 AUDIO
    TITLE "0:"
    INDEX 01 01:07:69
  TRACK 48 AUDIO
    TITLE "22:cjc171_11924"
    INDEX 01 01:08:28
  TRACK 49 AUDIO
    TITLE "0:"
    INDEX 01 01:11:04
  TRACK 50 AUDIO
    TITLE "23:cjc171_11925"
    INDEX 01 01:11:22
  TRACK 51 AUDIO
    TITLE "0:"
    INDEX 01 01:13:74
  TRACK 52 AUDIO
    TITLE "19:cjc171_11926"
    INDEX 01 01:14:67
  TRACK 53 AUDIO
    TITLE "0:"
    INDEX 01 01:16:27
  TRACK 54 AUDIO
    TITLE "20:cjc171_11927"
    INDEX 01 01:16:60
  TRACK 55 AUDIO
    TITLE "0:"
    INDEX 01 01:19:37
  TRACK 56 AUDIO
    TITLE "21:cjc171_11928"
    INDEX 01 01:20:37
  TRACK 57 AUDIO
    TITLE "0:"
    INDEX 01 01:23:12
  TRACK 58 AUDIO
    TITLE "22:cjc171_11929"
    INDEX 01 01:23:47
  TRACK 59 AUDIO
    TITLE "0:"
    INDEX 01 01:26:08
  TRACK 60 AUDIO
    TITLE "23:cjc171_11930"
    INDEX 01 01:26:30
  TRACK 61 AUDIO
    TITLE "0:"
    INDEX 01 01:28:64
  TRACK 62 AUDIO
    TITLE "19:cjc171_11931"
    INDEX 01 01:29:61
  TRACK 63 AUDIO
    TITLE "0:"
    INDEX 01 01:30:68
  TRACK 64 AUDIO
    TITLE "20:cjc171_11932"
    INDEX 01 01:31:33
  TRACK 65 AUDIO
    TITLE "0:"
    INDEX 01 01:34:06
  TRACK 66 AUDIO
    TITLE "21:cjc171_11933"
    INDEX 01 01:35:05
  TRACK 67 AUDIO
    TITLE "0:"
    INDEX 01 01:37:22
  TRACK 68 AUDIO
    TITLE "22:cjc171_11934"
    INDEX 01 01:37:63
  TRACK 69 AUDIO
    TITLE "0:"
    INDEX 01 01:39:62
  TRACK 70 AUDIO
    TITLE "23:cjc171_11935"
    INDEX 01 01:40:14
  TRACK 71 AUDIO
    TITLE "0:"
    INDEX 01 01:42:15
  TRACK 72 AUDIO
    TITLE "19:cjc171_11936"
    INDEX 01 01:43:16
  TRACK 73 AUDIO
    TITLE "0:"
    INDEX 01 01:44:43
  TRACK 74 AUDIO
    TITLE "20:cjc171_11937"
    INDEX 01 01:45:09
  TRACK 75 AUDIO
    TITLE "0:"
    INDEX 01 01:48:60
  TRACK 76 AUDIO
    TITLE "21:cjc171_11938"
    INDEX 01 01:49:62
  TRACK 77 AUDIO
    TITLE "0:"
    INDEX 01 01:51:39
  TRACK 78 AUDIO
    TITLE "22:cjc171_11939"
    INDEX 01 01:52:03
  TRACK 79 AUDIO
    TITLE "0:"
    INDEX 01 01:54:10
  TRACK 80 AUDIO
    TITLE "23:cjc171_11940"
    INDEX 01 01:54:40
  TRACK 81 AUDIO
    TITLE "0:"
    INDEX 01 01:56:44
  TRACK 82 AUDIO
    TITLE "19:cjc171_11941"
    INDEX 01 01:57:50
  TRACK 83 AUDIO
    TITLE "0:"
    INDEX 01 01:59:04
  TRACK 84 AUDIO
    TITLE "20:cjc171_11942"
    INDEX 01 01:59:45
  TRACK 85 AUDIO
    TITLE "0:"
    INDEX 01 02:00:73
  TRACK 86 AUDIO
    TITLE "21:cjc171_11943"
    INDEX 01 02:01:75
  TRACK 87 AUDIO
    TITLE "0:"
    INDEX 01 02:03:72
  TRACK 88 AUDIO
    TITLE "22:cjc171_11944"
    INDEX 01 02:04:38
  TRACK 89 AUDIO
    TITLE "0:"
    INDEX 01 02:06:39
  TRACK 90 AUDIO
    TITLE "23:cjc171_11945"
    INDEX 01 02:06:66
  TRACK 91 AUDIO
    TITLE "0:"
    INDEX 01 02:08:69
  TRACK 92 AUDIO
    TITLE "19:cjc171_11946"
    INDEX 01 02:09:65
  TRACK 93 AUDIO
    TITLE "0:"
    INDEX 01 02:11:03
  TRACK 94 AUDIO
    TITLE "20:cjc171_11947"
    INDEX 01 02:11:44
  TRACK 95 AUDIO
    TITLE "0:"
    INDEX 01 02:14:34
  TRACK 96 AUDIO
    TITLE "21:cjc171_11948"
    INDEX 01 02:15:34
  TRACK 97 AUDIO
    TITLE "0:"
    INDEX 01 02:17:70
  TRACK 98 AUDIO
    TITLE "22:cjc171_11949"
    INDEX 01 02:18:30
  TRACK 99 AUDIO
    TITLE "0:"
    INDEX 01 02:20:64
  TRACK 100 AUDIO
    TITLE "23:cjc171_11950"
    INDEX 01 02:21:11
  TRACK 101 AUDIO
    TITLE "0:"
    INDEX 01 02:23:47
  TRACK 102 AUDIO
    TITLE "19:cjc171_11951"
    INDEX 01 02:24:45
  TRACK 103 AUDIO
    TITLE "0:"
    INDEX 01 02:25:60
  TRACK 104 AUDIO
    TITLE "20:cjc171_11952"
    INDEX 01 02:26:22
  TRACK 105 AUDIO
    TITLE "0:"
    INDEX 01 02:27:53
  TRACK 106 AUDIO
    TITLE "21:cjc171_11953"
    INDEX 01 02:28:54
  TRACK 107 AUDIO
    TITLE "0:"
    INDEX 01 02:30:43
  TRACK 108 AUDIO
    TITLE "22:cjc171_11954"
    INDEX 01 02:31:05
  TRACK 109 AUDIO
    TITLE "0:"
    INDEX 01 02:32:60
  TRACK 110 AUDIO
    TITLE "23:cjc171_11955"
    INDEX 01 02:33:04
  TRACK 111 AUDIO
    TITLE "0:"
    INDEX 01 02:34:63
  TRACK 112 AUDIO
    TITLE "19:cjc171_11956"
    INDEX 01 02:35:54
  TRACK 113 AUDIO
    TITLE "0:"
    INDEX 01 02:37:02
  TRACK 114 AUDIO
    TITLE "20:cjc171_11957"
    INDEX 01 02:37:39
  TRACK 115 AUDIO
    TITLE "0:"
    INDEX 01 02:39:32
  TRACK 116 AUDIO
    TITLE "21:cjc171_11958"
    INDEX 01 02:40:26
  TRACK 117 AUDIO
    TITLE "0:"
    INDEX 01 02:42:70
  TRACK 118 AUDIO
    TITLE "22:cjc171_11959"
    INDEX 01 02:43:30
  TRACK 119 AUDIO
    TITLE "0:"
    INDEX 01 02:45:49
  TRACK 120 AUDIO
    TITLE "23:cjc171_11960"
    INDEX 01 02:45:70
  TRACK 121 AUDIO
    TITLE "0:"
    INDEX 01 02:48:16
  TRACK 122 AUDIO
    TITLE "19:cjc171_11961"
    INDEX 01 02:49:15
  TRACK 123 AUDIO
    TITLE "0:"
    INDEX 01 02:50:46
  TRACK 124 AUDIO
    TITLE "20:cjc171_11962"
    INDEX 01 02:51:04
  TRACK 125 AUDIO
    TITLE "0:"
    INDEX 01 02:56:43
  TRACK 126 AUDIO
    TITLE "21:cjc171_11963"
    INDEX 01 02:57:44
  TRACK 127 AUDIO
    TITLE "0:"
    INDEX 01 02:59:06
  TRACK 128 AUDIO
    TITLE "22:cjc171_11964"
    INDEX 01 02:59:37
  TRACK 129 AUDIO
    TITLE "0:"
    INDEX 01 03:01:09
  TRACK 130 AUDIO
    TITLE "23:cjc171_11965"
    INDEX 01 03:01:28
  TRACK 131 AUDIO
    TITLE "0:"
    INDEX 01 03:02:75
  TRACK 132 AUDIO
    TITLE "19:cjc171_11966"
    INDEX 01 03:04:07
  TRACK 133 AUDIO
    TITLE "0:"
    INDEX 01 03:05:36
  TRACK 134 AUDIO
    TITLE "20:cjc171_11967"
    INDEX 01 03:06:02
  TRACK 135 AUDIO
    TITLE "0:"
    INDEX 01 03:08:30
  TRACK 136 AUDIO
    TITLE "21:cjc171_11968"
    INDEX 01 03:09:33
  TRACK 137 AUDIO
    TITLE "0:"
    INDEX 01 03:11:38
  TRACK 138 AUDIO
    TITLE "22:cjc171_11969"
    INDEX 01 03:12:04
  TRACK 139 AUDIO
    TITLE "0:"
    INDEX 01 03:14:29
  TRACK 140 AUDIO
    TITLE "23:cjc171_11970"
    INDEX 01 03:14:62
  TRACK 141 AUDIO
    TITLE "0:"
    INDEX 01 03:17:11
  TRACK 142 AUDIO
    TITLE "19:cjc171_11971"
    INDEX 01 03:18:17
  TRACK 143 AUDIO
    TITLE "0:"
    INDEX 01 03:19:36
  TRACK 144 AUDIO
    TITLE "20:cjc171_11972"
    INDEX 01 03:19:75
  TRACK 145 AUDIO
    TITLE "0:"
    INDEX 01 03:21:03
  TRACK 146 AUDIO
    TITLE "21:cjc171_11973"
    INDEX 01 03:22:03
  TRACK 147 AUDIO
    TITLE "0:"
    INDEX 01 03:24:41
  TRACK 148 AUDIO
    TITLE "22:cjc171_11974"
    INDEX 01 03:25:07
  TRACK 149 AUDIO
    TITLE "0:"
    INDEX 01 03:27:22
  TRACK 150 AUDIO
    TITLE "23:cjc171_11975"
    INDEX 01 03:27:53
  TRACK 151 AUDIO
    TITLE "0:"
    INDEX 01 03:29:69
  TRACK 152 AUDIO
    TITLE "19:cjc171_11976"
    INDEX 01 03:30:69
  TRACK 153 AUDIO
    TITLE "0:"
    INDEX 01 03:32:05
  TRACK 154 AUDIO
    TITLE "20:cjc171_11977"
    INDEX 01 03:32:52
  TRACK 155 AUDIO
    TITLE "0:"
    INDEX 01 03:34:43
  TRACK 156 AUDIO
    TITLE "21:cjc171_11978"
    INDEX 01 03:35:45
  TRACK 157 AUDIO
    TITLE "0:"
    INDEX 01 03:37:32
  TRACK 158 AUDIO
    TITLE "22:cjc171_11979"
    INDEX 01 03:37:65
  TRACK 159 AUDIO
    TITLE "0:"
    INDEX 01 03:39:72
  TRACK 160 AUDIO
    TITLE "23:cjc171_11980"
    INDEX 01 03:40:16
  TRACK 161 AUDIO
    TITLE "0:"
    INDEX 01 03:42:25
  TRACK 162 AUDIO
    TITLE "19:cjc171_11981"
    INDEX 01 03:43:19
  TRACK 163 AUDIO
    TITLE "0:"
    INDEX 01 03:44:44
  TRACK 164 AUDIO
    TITLE "20:cjc171_11982"
    INDEX 01 03:45:04
  TRACK 165 AUDIO
    TITLE "0:"
    INDEX 01 03:47:46
  TRACK 166 AUDIO
    TITLE "21:cjc171_11983"
    INDEX 01 03:48:45
  TRACK 167 AUDIO
    TITLE "0:"
    INDEX 01 03:50:74
  TRACK 168 AUDIO
    TITLE "22:cjc171_11984"
    INDEX 01 03:51:32
  TRACK 169 AUDIO
    TITLE "0:"
    INDEX 01 03:54:09
  TRACK 170 AUDIO
    TITLE "23:cjc171_11985"
    INDEX 01 03:54:30
  TRACK 171 AUDIO
    TITLE "0:"
    INDEX 01 03:57:07
  TRACK 172 AUDIO
    TITLE "19:cjc171_11986"
    INDEX 01 03:58:03
  TRACK 173 AUDIO
    TITLE "0:"
    INDEX 01 03:59:24
  TRACK 174 AUDIO
    TITLE "20:cjc171_11987"
    INDEX 01 03:59:61
  TRACK 175 AUDIO
    TITLE "0:"
    INDEX 01 04:01:44
  TRACK 176 AUDIO
    TITLE "21:cjc171_11988"
    INDEX 01 04:02:45
  TRACK 177 AUDIO
    TITLE "0:"
    INDEX 01 04:04:31
  TRACK 178 AUDIO
    TITLE "22:cjc171_11989"
    INDEX 01 04:04:62
  TRACK 179 AUDIO
    TITLE "0:"
    INDEX 01 04:07:17
  TRACK 180 AUDIO
    TITLE "23:cjc171_11990"
    INDEX 01 04:07:43
  TRACK 181 AUDIO
    TITLE "0:"
    INDEX 01 04:09:71
  TRACK 182 AUDIO
    TITLE "19:cjc171_11991"
    INDEX 01 04:11:03
  TRACK 183 AUDIO
    TITLE "0:"
    INDEX 01 04:12:20
  TRACK 184 AUDIO
    TITLE "20:cjc171_11992"
    INDEX 01 04:12:60
  TRACK 185 AUDIO
    TITLE "0:"
    INDEX 01 04:15:15
  TRACK 186 AUDIO
    TITLE "21:cjc171_11993"
    INDEX 01 04:16:12
  TRACK 187 AUDIO
    TITLE "0:"
    INDEX 01 04:18:15
  TRACK 188 AUDIO
    TITLE "22:cjc171_11994"
    INDEX 01 04:18:54
  TRACK 189 AUDIO
    TITLE "0:"
    INDEX 01 04:21:27
  TRACK 190 AUDIO
    TITLE "23:cjc171_11995"
    INDEX 01 04:21:58
  TRACK 191 AUDIO
    TITLE "0:"
    INDEX 01 04:24:29
  TRACK 192 AUDIO
    TITLE "19:cjc171_11996"
    INDEX 01 04:25:35
  TRACK 193 AUDIO
    TITLE "0:"
    INDEX 01 04:26:42
  TRACK 194 AUDIO
    TITLE "20:cjc171_11997"
    INDEX 01 04:27:06
  TRACK 195 AUDIO
    TITLE "0:"
    INDEX 01 04:29:01
  TRACK 196 AUDIO
    TITLE "21:cjc171_11998"
    INDEX 01 04:29:74
  TRACK 197 AUDIO
    TITLE "0:"
    INDEX 01 04:32:37
  TRACK 198 AUDIO
    TITLE "22:cjc171_11999"
    INDEX 01 04:32:74
  TRACK 199 AUDIO
    TITLE "0:"
    INDEX 01 04:34:69
  TRACK 200 AUDIO
    TITLE "23:cjc171_12000"
    INDEX 01 04:35:25
  TRACK 201 AUDIO
    TITLE "0:"
    INDEX 01 04:37:18
  TRACK 202 AUDIO
    TITLE "19:cjc171_12001"
    INDEX 01 04:38:26
  TRACK 203 AUDIO
    TITLE "0:"
    INDEX 01 04:39:54
  TRACK 204 AUDIO
    TITLE "20:cjc171_12002"
    INDEX 01 04:40:21
  TRACK 205 AUDIO
    TITLE "0:"
    INDEX 01 04:42:59
  TRACK 206 AUDIO
    TITLE "21:cjc171_12003"
    INDEX 01 04:43:56
  TRACK 207 AUDIO
    TITLE "0:"
    INDEX 01 04:45:20
  TRACK 208 AUDIO
    TITLE "22:cjc171_12004"
    INDEX 01 04:45:59
  TRACK 209 AUDIO
    TITLE "0:"
    INDEX 01 04:47:52
  TRACK 210 AUDIO
    TITLE "23:cjc171_12005"
    INDEX 01 04:48:06
  TRACK 211 AUDIO
    TITLE "0:"
    INDEX 01 04:50:01
  TRACK 212 AUDIO
    TITLE "19:cjc171_12006"
    INDEX 01 04:51:05
  TRACK 213 AUDIO
    TITLE "0:"
    INDEX 01 04:52:36
  TRACK 214 AUDIO
    TITLE "20:cjc171_12007"
    INDEX 01 04:52:69
  TRACK 215 AUDIO
    TITLE "0:"
    INDEX 01 04:55:59
  TRACK 216 AUDIO
    TITLE "21:cjc171_12008"
    INDEX 01 04:56:59
  TRACK 217 AUDIO
    TITLE "0:"
    INDEX 01 04:59:28
  TRACK 218 AUDIO
    TITLE "22:cjc171_12009"
    INDEX 01 04:59:63
  TRACK 219 AUDIO
    TITLE "0:"
    INDEX 01 05:01:70
  TRACK 220 AUDIO
    TITLE "23:cjc171_12010"
    INDEX 01 05:02:14
  TRACK 221 AUDIO
    TITLE "0:"
    INDEX 01 05:04:23
  TRACK 222 AUDIO
    TITLE "19:cjc171_12011"
    INDEX 01 05:05:17
  TRACK 223 AUDIO
    TITLE "0:"
    INDEX 01 05:06:40
  TRACK 224 AUDIO
    TITLE "20:cjc171_12012"
    INDEX 01 05:07:06
  TRACK 225 AUDIO
    TITLE "0:"
    INDEX 01 05:08:60
  TRACK 226 AUDIO
    TITLE "21:cjc171_12013"
    INDEX 01 05:09:59
  TRACK 227 AUDIO
    TITLE "0:"
    INDEX 01 05:12:40
  TRACK 228 AUDIO
    TITLE "22:cjc171_12014"
    INDEX 01 05:12:75
  TRACK 229 AUDIO
    TITLE "0:"
    INDEX 01 05:15:11
  TRACK 230 AUDIO
    TITLE "23:cjc171_12015"
    INDEX 01 05:15:33
  TRACK 231 AUDIO
    TITLE "0:"
    INDEX 01 05:17:45
  TRACK 232 AUDIO
    TITLE "19:cjc171_12016"
    INDEX 01 05:18:41
  TRACK 233 AUDIO
    TITLE "0:"
    INDEX 01 05:19:72
  TRACK 234 AUDIO
    TITLE "20:cjc171_12017"
    INDEX 01 05:20:34
  TRACK 235 AUDIO
    TITLE "0:"
    INDEX 01 05:21:31
  TRACK 236 AUDIO
    TITLE "21:cjc171_12018"
    INDEX 01 05:22:29
  TRACK 237 AUDIO
    TITLE "0:"
    INDEX 01 05:24:26
  TRACK 238 AUDIO
    TITLE "22:cjc171_12019"
    INDEX 01 05:24:63
  TRACK 239 AUDIO
    TITLE "0:"
    INDEX 01 05:27:26
  TRACK 240 AUDIO
    TITLE "23:cjc171_12020"
    INDEX 01 05:27:52
  TRACK 241 AUDIO
    TITLE "0:"
    INDEX 01 05:30:13
  TRACK 242 AUDIO
    TITLE "19:cjc171_12021"
    INDEX 01 05:31:14
  TRACK 243 AUDIO
    TITLE "0:"
    INDEX 01 05:32:35
  TRACK 244 AUDIO
    TITLE "20:cjc171_12022"
    INDEX 01 05:32:74
  TRACK 245 AUDIO
    TITLE "0:"
    INDEX 01 05:35:02
  TRACK 246 AUDIO
    TITLE "21:cjc171_12023"
    INDEX 01 05:35:75
  TRACK 247 AUDIO
    TITLE "0:"
    INDEX 01 05:37:32
  TRACK 248 AUDIO
    TITLE "22:cjc171_12024"
    INDEX 01 05:37:73
  TRACK 249 AUDIO
    TITLE "0:"
    INDEX 01 05:40:19
  TRACK 250 AUDIO
    TITLE "23:cjc171_12025"
    INDEX 01 05:40:50
  TRACK 251 AUDIO
    TITLE "0:"
    INDEX 01 05:42:71
  TRACK 252 AUDIO
    TITLE "19:cjc171_12026"
    INDEX 01 05:44:01
  TRACK 253 AUDIO
    TITLE "0:"
    INDEX 01 05:45:28
  TRACK 254 AUDIO
    TITLE "20:cjc171_12027"
    INDEX 01 05:45:67
  TRACK 255 AUDIO
    TITLE "0:"
    INDEX 01 05:48:54
  TRACK 256 AUDIO
    TITLE "21:cjc171_12028"
    INDEX 01 05:49:55
  TRACK 257 AUDIO
    TITLE "0:"
    INDEX 01 05:52:38
  TRACK 258 AUDIO
    TITLE "22:cjc171_12029"
    INDEX 01 05:53:04
  TRACK 259 AUDIO
    TITLE "0:"
    INDEX 01 05:55:40
  TRACK 260 AUDIO
    TITLE "23:cjc171_12030"
    INDEX 01 05:55:73
  TRACK 261 AUDIO
    TITLE "0:"
    INDEX 01 05:58:36
  TRACK 262 AUDIO
    TITLE "19:cjc171_12031"
    INDEX 01 05:59:42
  TRACK 263 AUDIO
    TITLE "0:"
    INDEX 01 06:00:67
  TRACK 264 AUDIO
    TITLE "20:cjc171_12032"
    INDEX 01 06:01:33
  TRACK 265 AUDIO
    TITLE "0:"
    INDEX 01 06:03:08
  TRACK 266 AUDIO
    TITLE "21:cjc171_12033"
    INDEX 01 06:04:08
  TRACK 267 AUDIO
    TITLE "0:"
    INDEX 01 06:06:46
  TRACK 268 AUDIO
    TITLE "22:cjc171_12034"
    INDEX 01 06:07:10
  TRACK 269 AUDIO
    TITLE "0:"
    INDEX 01 06:09:58
  TRACK 270 AUDIO
    TITLE "23:cjc171_12035"
    INDEX 01 06:10:12
  TRACK 271 AUDIO
    TITLE "0:"
    INDEX 01 06:12:60
  TRACK 272 AUDIO
    TITLE "19:cjc171_12036"
    INDEX 01 06:13:59
  TRACK 273 AUDIO
    TITLE "0:"
    INDEX 01 06:15:04
  TRACK 274 AUDIO
    TITLE "20:cjc171_12037"
    INDEX 01 06:15:37
  TRACK 275 AUDIO
    TITLE "0:"
    INDEX 01 06:16:73
  TRACK 276 AUDIO
    TITLE "21:cjc171_12038"
    INDEX 01 06:17:67
  TRACK 277 AUDIO
    TITLE "0:"
    INDEX 01 06:20:30
  TRACK 278 AUDIO
    TITLE "22:cjc171_12039"
    INDEX 01 06:20:63
  TRACK 279 AUDIO
    TITLE "0:"
    INDEX 01 06:23:46
  TRACK 280 AUDIO
    TITLE "23:cjc171_12040"
    INDEX 01 06:23:62
  TRACK 281 AUDIO
    TITLE "0:"
    INDEX 01 06:26:43
  TRACK 282 AUDIO
    TITLE "19:cjc171_12041"
    INDEX 01 06:27:36
  TRACK 283 AUDIO
    TITLE "0:"
    INDEX 01 06:28:53
  TRACK 284 AUDIO
    TITLE "20:cjc171_12042"
    INDEX 01 06:29:15
  TRACK 285 AUDIO
    TITLE "0:"
    INDEX 01 06:30:42
  TRACK 286 AUDIO
    TITLE "21:cjc171_12043"
    INDEX 01 06:31:40
  TRACK 287 AUDIO
    TITLE "0:"
    INDEX 01 06:34:17
  TRACK 288 AUDIO
    TITLE "22:cjc171_12044"
    INDEX 01 06:34:52
  TRACK 289 AUDIO
    TITLE "0:"
    INDEX 01 06:37:27
  TRACK 290 AUDIO
    TITLE "23:cjc171_12045"
    INDEX 01 06:37:52
  TRACK 291 AUDIO
    TITLE "0:"
    INDEX 01 06:40:27
  TRACK 292 AUDIO
    TITLE "19:cjc171_12046"
    INDEX 01 06:41:24
  TRACK 293 AUDIO
    TITLE "0:"
    INDEX 01 06:42:42
  TRACK 294 AUDIO
    TITLE "20:cjc171_12047"
    INDEX 01 06:43:02
  TRACK 295 AUDIO
    TITLE "0:"
    INDEX 01 06:44:37
  TRACK 296 AUDIO
    TITLE "21:cjc171_12048"
    INDEX 01 06:45:38
  TRACK 297 AUDIO
    TITLE "0:"
    INDEX 01 06:47:62
  TRACK 298 AUDIO
    TITLE "22:cjc171_12049"
    INDEX 01 06:48:21
  TRACK 299 AUDIO
    TITLE "0:"
    INDEX 01 06:50:57
  TRACK 300 AUDIO
    TITLE "23:cjc171_12050"
    INDEX 01 06:51:05
  TRACK 301 AUDIO
    TITLE "0:"
    INDEX 01 06:53:41
